<svg version="1.2" xmlns="http://www.w3.org/2000/svg" viewBox="0 0 290 240" width="290" height="240">
	<title>bussiness-svg</title>
	<defs>
		<linearGradient id="g1" x1="64.3" y1="152.1" x2="92.5" y2="124.8" gradientUnits="userSpaceOnUse">
			<stop offset="0" stop-color="#ffffff" stop-opacity="0"/>
			<stop offset="1" stop-color="#2a1700"/>
		</linearGradient>
		<linearGradient id="g2" x1="124.5" y1="182.7" x2="150.9" y2="157.3" gradientUnits="userSpaceOnUse">
			<stop offset="0" stop-color="#ffffff" stop-opacity="0"/>
			<stop offset="1" stop-color="#2a1700"/>
		</linearGradient>
		<linearGradient id="g3" x1="188.5" y1="210.9" x2="222" y2="178.6" gradientUnits="userSpaceOnUse">
			<stop offset="0" stop-color="#ffffff" stop-opacity="0"/>
			<stop offset="1" stop-color="#2a1700"/>
		</linearGradient>
		<linearGradient id="g4" x1="29.5" y1="135.6" x2="57.8" y2="108.3" gradientUnits="userSpaceOnUse">
			<stop offset="0" stop-color="#ffffff" stop-opacity="0"/>
			<stop offset="1" stop-color="#2a1700"/>
		</linearGradient>
	</defs>
	<style>
		.s0 { fill: #efddd8 } 
		.s1 { opacity: .3;fill: url(#g1) } 
		.s2 { opacity: .3;fill: url(#g2) } 
		.s3 { opacity: .3;fill: url(#g3) } 
		.s4 { opacity: .3;fill: url(#g4) } 
		.s5 { fill: #ffc050 } 
		.s6 { fill: #ce8a8d } 
		.s7 { fill: #146666 } 
		.s8 { fill: #ffffff } 
		.s9 { fill: #5ed18d } 
		.s10 { fill: #ff912e } 
		.s11 { fill: #e0944f } 
		.s12 { fill: #ffb92c } 
		.s13 { fill: #ea8b24 } 
		.s14 { fill: none;stroke: #f7931e;stroke-width: 6 } 
		.s15 { fill: none;stroke: #f7931e;stroke-width: 2 } 
		.s16 { fill: #2c9390 } 
		.s17 { fill: #f2ae16 } 
		.s18 { fill: #ffd008 } 
		.s19 { fill: none;stroke: #f7931e;stroke-width: 1 } 
		.s20 { opacity: .2;fill: #3e2928 } 
		.s21 { opacity: .5;fill: #ffffff } 
		.s22 { fill: #3e2928 } 
		.s23 { fill: #ff8f6f } 
		.s24 { fill: #003b94 } 
		.s25 { fill: #ffb5a9 } 
		.s26 { fill: #007f68 } 
	</style>
	<path id="Layer" class="s0" d="m2.2 129.7l181.4 105.2 98.8-57.1-180.5-104.5-99.7 56.4z"/>
	<path id="Layer" class="s1" d="m100.9 133.6c-6-4.1-12.2-8-17.5-13l-45.9 27.7 28.6 15.9 42.1-25c-2.4-1.9-4.8-3.9-7.3-5.6z"/>
	<path id="Layer" class="s2" d="m156.8 163.6c-6-4.1-7.3-1.5-12.5-6.6l-43.3 23.8 21 13.4 42.1-25c-2.4-1.9-4.8-3.9-7.3-5.6z"/>
	<path id="Layer" class="s3" d="m216.1 193c-6-4.1-7.2-1.5-12.5-6.6l-43.3 23.8 21 13.4 55.7-31.6c-2.4-1.9-18.4 2.7-20.9 1z"/>
	<path id="Layer" class="s4" d="m86.6 112.8l-56.5 33.5-28.6-15.9 56.3-34"/>
	<path id="Layer" class="s5" d="m128.8 52.1l-0.1 36.1-63.6 37.1v-42.7l63.6-30.5z"/>
	<path id="Layer" class="s6" d="m37.1 108.4v-36.6l28.1 16.2v37.3"/>
	<path id="Layer" class="s7" d="m65.2 125.3v-37.3l-28.1-16.2v36.6l28.1 16.9z"/>
	<path id="Layer" class="s8" d="m64.9 88.4l-28-16.2 65.4-37.1 26.4 17-63.8 36.3z"/>
	<path id="Layer" class="s6" d="m98.3 36.5c-4.2-0.4-8.6-1.7-11.7-4.5v12.4c0 1.7 0.3 3.4 1 4.9 0.6 1.6 1.6 3 2.8 4.2 1.2 1.2 2.6 2.2 4.2 2.8 1.5 0.7 3.2 1 4.9 1 1.7 0 3.4-0.3 4.9-1 1.6-0.6 3-1.6 4.2-2.8 1.2-1.2 2.2-2.6 2.8-4.2 0.7-1.5 1-3.2 1-4.9v-12.7c-4.4 1.8-9.4 5.2-14.1 4.8z"/>
	<path id="Layer" class="s9" d="m99.5 38.7c-7.1 0-12.9-3-12.9-6.8 0-3.8 5.8-6.9 12.9-6.9 7.1 0 12.9 3.1 12.9 6.9 0 3.8-5.8 6.8-12.9 6.8z"/>
	<path id="Layer" class="s9" d="m99.5 33c0 0-8.8-1.3-11.1-15.5 0 0 7.5 4.2 11.1 15.5z"/>
	<path id="Layer" class="s9" d="m100.8 31.2c0 0-10.1-18.1 0-30.2q1.1 3.7 1.7 7.5 0.6 3.8 0.6 7.6 0 3.9-0.6 7.7-0.6 3.8-1.7 7.4z"/>
	<path id="Layer" class="s9" d="m99.5 19.9c0 0-8.8-1.3-11.1-15.5 0 0 7.5 4.1 11.1 15.5z"/>
	<path id="Layer" class="s9" d="m100.6 25.6c0 0-2.2-8.6 10-16.2 0 0-0.9 8.5-10 16.2z"/>
	<path id="Layer" class="s7" d="m99.5 38.7c-7.1 0-12.9-3-12.9-6.8 0-3.8 5.8-6.9 12.9-6.9 7.1 0 12.9 3.1 12.9 6.9 0 3.8-5.8 6.8-12.9 6.8z"/>
	<path id="Layer" class="s9" d="m99.5 33c0 0-8.8-1.3-11.1-15.5 0 0 7.5 4.2 11.1 15.5z"/>
	<path id="Layer" class="s9" d="m100.8 31.2c0 0-10.1-18.1 0-30.2q1.1 3.7 1.7 7.5 0.6 3.8 0.6 7.6 0 3.9-0.6 7.7-0.6 3.8-1.7 7.4z"/>
	<path id="Layer" class="s9" d="m99.5 19.9c0 0-8.8-1.3-11.1-15.5 0 0 7.5 4.1 11.1 15.5z"/>
	<path id="Layer" class="s9" d="m100.6 25.6c0 0-2.2-8.6 10-16.2 0 0-0.9 8.5-10 16.2z"/>
	<path id="Layer" class="s10" d="m64.5 79.8c-12.2 0-21.9-5.7-21.9-12.8 0-7.1 9.7-12.8 21.9-12.8 12.1 0 21.8 5.7 21.8 12.8 0 7.1-9.7 12.8-21.8 12.8z"/>
	<path id="Layer" class="s11" d="m42.6 67v-3.7l2.3 3-2.3 0.7z"/>
	<path id="Layer" class="s11" d="m86.3 63.3v3.7h-2.7l2-3 0.7-0.7z"/>
	<path id="Layer" class="s12" d="m64.5 76.1c-12.2 0-21.9-5.7-21.9-12.8 0-7.1 9.7-12.8 21.9-12.8 12.1 0 21.8 5.7 21.8 12.8 0 7.1-9.7 12.8-21.8 12.8z"/>
	<path id="Layer" class="s13" d="m75.5 61.6q0.1 0.1 0.1 0.2 0.1 0.2 0.1 0.3 0 0.1 0 0.3 0 0.1 0 0.2l-0.1 0.4h-4q0-0.1 0.1-0.1 0-0.1 0-0.1 0-0.1 0-0.1 0 0 0-0.1 0-0.1 0-0.2 0-0.1-0.1-0.2 0-0.1 0-0.2-0.1 0-0.1-0.1-0.1-0.2-0.2-0.3-0.1-0.1-0.3-0.2-0.1-0.2-0.2-0.2-0.2-0.1-0.3-0.2-0.3-0.1-0.5-0.2-0.2-0.1-0.5-0.2-0.2 0-0.4-0.1-0.3 0-0.5 0-0.2 0-0.5 0-0.2 0-0.4 0-0.3 0.1-0.5 0.1-0.2 0.1-0.4 0.2-0.8 0.3-0.7 0.9 0.1 0.2 0.2 0.4 0.1 0.1 0.2 0.3 0.1 0.1 0.2 0.3 0.2 0.1 0.3 0.3 0.2 0.1 0.3 0.3 0.2 0.2 0.3 0.3 0.2 0.2 0.3 0.4 0.2 0.2 0.3 0.3 0.1 0.2 0.2 0.4 0.1 0.2 0.1 0.4 0.1 0.2 0 0.4 0 0.2-0.1 0.4-0.1 0.3-0.3 0.5-0.3 0.2-0.5 0.4-0.2 0.2-0.5 0.4-0.3 0.1-0.6 0.2-0.5 0.2-1 0.4-0.6 0.1-1.1 0.2-0.5 0.2-1.1 0.2-0.5 0.1-1 0.1-0.6 0-1.2 0-0.6-0.1-1.2-0.1-0.6-0.1-1.1-0.3-0.6-0.1-1.2-0.3l-2.3 1-2.7-1.3 2.3-1q-0.2-0.1-0.3-0.2-0.2-0.1-0.3-0.2-0.1-0.2-0.3-0.3-0.1-0.1-0.2-0.3-0.1-0.1-0.2-0.2 0-0.1-0.1-0.2-0.1-0.1-0.1-0.2-0.1-0.1-0.1-0.3-0.1-0.1-0.1-0.1 0-0.1 0-0.2 0-0.1-0.1-0.2 0-0.1 0-0.2 0-0.1 0-0.1 0-0.1 0-0.1 0-0.1 0-0.2 0 0 0-0.1l0.1-0.2h4q0 0.1 0 0.1 0 0.1 0 0.1-0.1 0.1-0.1 0.1 0 0.1 0 0.1 0 0.1 0 0.3 0.1 0.1 0.1 0.2 0 0.1 0.1 0.2 0.1 0.1 0.1 0.2 0.1 0.2 0.3 0.4 0.1 0.1 0.3 0.3 0.2 0.1 0.4 0.3 0.1 0.1 0.3 0.2 0.3 0.1 0.6 0.2 0.3 0.1 0.6 0.2 0.3 0.1 0.6 0.1 0.3 0 0.6 0.1 0.2 0 0.5 0 0.3 0 0.6-0.1 0.2 0 0.5-0.1 0.3-0.1 0.5-0.2 0.8-0.3 0.6-0.9 0-0.2-0.1-0.4-0.1-0.1-0.2-0.3-0.2-0.2-0.3-0.3-0.1-0.1-0.3-0.3-0.1-0.1-0.3-0.3-0.1-0.2-0.3-0.3-0.1-0.2-0.3-0.4-0.1-0.2-0.3-0.4-0.1-0.1-0.2-0.3-0.1-0.2-0.1-0.4 0-0.2 0-0.4 0.1-0.2 0.2-0.4 0.1-0.3 0.4-0.5 0.2-0.3 0.4-0.5 0.3-0.2 0.6-0.3 0.3-0.2 0.6-0.3 0.4-0.1 0.9-0.3 0.5-0.1 1.1-0.2 0.5-0.1 1-0.2 0.5 0 1-0.1 0.6 0 1.1 0.1 0.6 0 1.1 0.1 0.6 0.1 1.1 0.2 0.5 0.1 1.1 0.3l2.2-1 2.5 1.4-2.2 1q0.1 0.1 0.3 0.3 0.1 0.1 0.3 0.3 0.1 0.1 0.2 0.3 0.2 0.2 0.2 0.4z"/>
	<path id="Layer" class="s14" d="m64.5 74.2c-10.2 0-18.4-4.8-18.4-10.7 0-6 8.2-10.8 18.4-10.8 10.1 0 18.3 4.8 18.3 10.8 0 5.9-8.2 10.7-18.3 10.7z"/>
	<path id="Layer" class="s10" d="m64.5 72.8c-12.2 0-21.9-5.8-21.9-12.8 0-7.1 9.7-12.9 21.9-12.9 12.1 0 21.8 5.8 21.8 12.9 0 7-9.7 12.8-21.8 12.8z"/>
	<path id="Layer" class="s11" d="m42.6 60v-3.7l2.3 2.9-2.3 0.8z"/>
	<path id="Layer" class="s11" d="m86.3 56.3v3.7h-2.7l2-3 0.7-0.7z"/>
	<path id="Layer" class="s12" d="m64.5 69.1c-12.2 0-21.9-5.8-21.9-12.8 0-7.1 9.7-12.9 21.9-12.9 12.1 0 21.8 5.8 21.8 12.9 0 7-9.7 12.8-21.8 12.8z"/>
	<path id="Layer" class="s13" d="m75.5 54.5q0.1 0.2 0.1 0.3 0.1 0.1 0.1 0.2 0 0.2 0 0.3 0 0.1 0 0.2l-0.1 0.4h-4q0-0.1 0.1-0.1 0 0 0-0.1 0 0 0-0.1 0 0 0-0.1 0-0.1 0-0.2 0 0-0.1-0.1 0-0.1 0-0.2-0.1-0.1-0.1-0.2-0.1-0.1-0.2-0.3-0.1-0.1-0.3-0.2-0.1-0.1-0.2-0.2-0.2-0.1-0.3-0.2-0.3-0.1-0.5-0.2-0.2-0.1-0.5-0.1-0.2-0.1-0.4-0.1-0.3-0.1-0.5-0.1-0.2 0-0.5 0-0.2 0-0.4 0.1-0.3 0-0.5 0.1-0.2 0-0.4 0.1-0.8 0.4-0.7 0.9 0.1 0.2 0.2 0.4 0.1 0.2 0.2 0.3 0.1 0.2 0.2 0.3 0.2 0.2 0.3 0.3 0.2 0.2 0.3 0.3 0.2 0.2 0.3 0.4 0.2 0.1 0.3 0.3 0.2 0.2 0.3 0.4 0.1 0.1 0.2 0.3 0.1 0.2 0.1 0.4 0.1 0.2 0 0.4 0 0.2-0.1 0.4-0.1 0.3-0.3 0.5-0.3 0.3-0.5 0.5-0.2 0.1-0.5 0.3-0.3 0.1-0.6 0.2-0.5 0.2-1 0.4-0.6 0.2-1.1 0.3-0.5 0.1-1.1 0.1-0.5 0.1-1 0.1-0.6 0-1.2 0-0.6 0-1.2-0.1-0.6-0.1-1.1-0.2-0.6-0.2-1.2-0.3l-2.3 1-2.7-1.4 2.3-1q-0.2-0.1-0.3-0.2-0.2-0.1-0.3-0.2-0.1-0.1-0.3-0.3-0.1-0.1-0.2-0.3-0.1 0-0.2-0.2 0-0.1-0.1-0.2-0.1-0.1-0.1-0.2-0.1-0.1-0.1-0.2-0.1-0.1-0.1-0.2 0-0.1 0-0.2 0-0.1-0.1-0.2 0-0.1 0-0.2 0 0 0-0.1 0 0 0-0.1 0-0.1 0-0.1 0-0.1 0-0.2l0.1-0.1h4q0 0 0 0 0 0.1 0 0.1-0.1 0.1-0.1 0.1 0 0.1 0 0.2 0 0.1 0 0.2 0.1 0.1 0.1 0.2 0 0.1 0.1 0.3 0.1 0.1 0.1 0.2 0.1 0.1 0.3 0.3 0.1 0.2 0.3 0.3 0.2 0.2 0.4 0.3 0.1 0.1 0.3 0.2 0.3 0.1 0.6 0.2 0.3 0.1 0.6 0.2 0.3 0.1 0.6 0.1 0.3 0.1 0.6 0.1 0.2 0 0.5 0 0.3 0 0.6-0.1 0.2 0 0.5-0.1 0.3 0 0.5-0.2 0.8-0.3 0.6-0.9 0-0.2-0.1-0.3-0.1-0.2-0.2-0.4-0.2-0.1-0.3-0.3-0.1-0.1-0.3-0.2-0.1-0.2-0.3-0.4-0.1-0.1-0.3-0.3-0.1-0.2-0.3-0.4-0.1-0.1-0.3-0.3-0.1-0.2-0.2-0.4-0.1-0.2-0.1-0.4 0-0.2 0-0.4 0.1-0.2 0.2-0.4 0.1-0.3 0.4-0.5 0.2-0.2 0.4-0.4 0.3-0.2 0.6-0.4 0.3-0.1 0.6-0.2 0.4-0.2 0.9-0.4 0.5-0.1 1.1-0.2 0.5-0.1 1-0.2 0.5 0 1 0 0.6 0 1.1 0 0.6 0 1.1 0.1 0.6 0.1 1.1 0.2 0.5 0.2 1.1 0.3l2.2-1 2.5 1.4-2.2 1q0.1 0.1 0.3 0.3 0.1 0.1 0.3 0.3 0.1 0.2 0.2 0.4 0.2 0.1 0.2 0.3z"/>
	<path id="Layer" class="s15" d="m64.5 67.2c-10.2 0-18.4-4.8-18.4-10.8 0-5.9 8.2-10.7 18.4-10.7 10.1 0 18.3 4.8 18.3 10.7 0 6-8.2 10.8-18.3 10.8z"/>
	<path id="Layer" class="s10" d="m55.9 67.4c-12.1 0-21.9-5.8-21.9-12.8 0-7.1 9.8-12.9 21.9-12.9 12.1 0 21.9 5.8 21.9 12.9 0 7-9.8 12.8-21.9 12.8z"/>
	<path id="Layer" class="s11" d="m34 54.6v-3.7l2.4 2.9-2.4 0.8z"/>
	<path id="Layer" class="s11" d="m77.8 50.9v3.7h-2.8l2-3 0.8-0.7z"/>
	<path id="Layer" class="s12" d="m55.9 63.7c-12.1 0-21.9-5.8-21.9-12.8 0-7.1 9.8-12.9 21.9-12.9 12.1 0 21.9 5.8 21.9 12.9 0 7-9.8 12.8-21.9 12.8z"/>
	<path id="Layer" class="s13" d="m67 49.2q0.1 0.1 0.1 0.2 0 0.1 0.1 0.2 0 0.2 0 0.3 0 0.1 0 0.3l-0.1 0.3h-4q0-0.1 0-0.1 0 0 0-0.1 0 0 0-0.1 0 0 0 0 0-0.1 0-0.2 0-0.1 0-0.2-0.1-0.1-0.1-0.2 0-0.1-0.1-0.2-0.1-0.1-0.2-0.3-0.1-0.1-0.2-0.2-0.1-0.1-0.3-0.2-0.1-0.1-0.3-0.2-0.2-0.1-0.4-0.2-0.3-0.1-0.5-0.1-0.2-0.1-0.5-0.1-0.2-0.1-0.5-0.1-0.2 0-0.4 0-0.3 0-0.5 0.1-0.2 0-0.4 0.1-0.2 0-0.4 0.1-0.9 0.4-0.7 0.9 0.1 0.2 0.2 0.4 0 0.2 0.2 0.3 0.1 0.2 0.2 0.3 0.1 0.2 0.2 0.3 0.2 0.2 0.4 0.3 0.1 0.2 0.3 0.4 0.1 0.2 0.3 0.3 0.1 0.2 0.3 0.4 0.1 0.1 0.2 0.3 0.1 0.2 0.1 0.4 0 0.2 0 0.4 0 0.2-0.1 0.4-0.2 0.3-0.4 0.5-0.2 0.3-0.4 0.5-0.3 0.2-0.5 0.3-0.3 0.2-0.6 0.3-0.5 0.2-1 0.4-0.5 0.1-1.1 0.2-0.5 0.2-1 0.2-0.6 0.1-1.1 0.1-0.6 0-1.2 0-0.6-0.1-1.2-0.1-0.6-0.1-1.1-0.3-0.6-0.1-1.2-0.3l-2.3 1-2.6-1.3 2.2-1q-0.2-0.1-0.3-0.2-0.2-0.1-0.3-0.2-0.1-0.2-0.3-0.3-0.1-0.1-0.2-0.3-0.1-0.1-0.2-0.2 0-0.1-0.1-0.2-0.1-0.1-0.1-0.2-0.1-0.1-0.1-0.3 0-0.1-0.1-0.1 0-0.1 0-0.2 0-0.1 0-0.2-0.1-0.1-0.1-0.2 0-0.1 0-0.1 0-0.1 0-0.1 0-0.1 0-0.2 0 0 0-0.1l0.1-0.2h4q0 0.1 0 0.1 0 0.1 0 0.1 0 0.1-0.1 0.1 0 0.1 0 0.1 0 0.1 0 0.3 0.1 0.1 0.1 0.2 0.1 0.1 0.1 0.2 0.1 0.1 0.1 0.2 0.2 0.2 0.3 0.4 0.1 0.1 0.3 0.3 0.2 0.1 0.4 0.3 0.2 0.1 0.4 0.2 0.2 0.1 0.5 0.2 0.3 0.1 0.6 0.2 0.3 0.1 0.6 0.1 0.3 0 0.6 0.1 0.3 0 0.5 0 0.3 0 0.6-0.1 0.2 0 0.5-0.1 0.3-0.1 0.5-0.2 0.8-0.3 0.6-0.9 0-0.2-0.1-0.4-0.1-0.1-0.2-0.3-0.1-0.2-0.3-0.3-0.1-0.1-0.2-0.3-0.2-0.1-0.4-0.3-0.1-0.2-0.3-0.3-0.1-0.2-0.3-0.4-0.1-0.2-0.3-0.4-0.1-0.1-0.2-0.3-0.1-0.2-0.1-0.4 0-0.2 0-0.4 0.1-0.2 0.2-0.4 0.1-0.3 0.4-0.5 0.2-0.3 0.4-0.5 0.3-0.2 0.6-0.3 0.3-0.2 0.6-0.3 0.5-0.1 1-0.3 0.5-0.1 1-0.2 0.5-0.1 1-0.2 0.5 0 1-0.1 0.6 0 1.1 0.1 0.6 0 1.1 0.1 0.6 0.1 1.1 0.2 0.5 0.1 1.1 0.3l2.3-1 2.5 1.4-2.3 1q0.1 0.1 0.3 0.3 0.1 0.1 0.3 0.3 0.1 0.1 0.2 0.3 0.1 0.2 0.2 0.4z"/>
	<path id="Layer" class="s15" d="m55.9 61.8c-10.1 0-18.3-4.8-18.3-10.8 0-5.9 8.2-10.7 18.3-10.7 10.2 0 18.4 4.8 18.4 10.7 0 6-8.2 10.8-18.4 10.8z"/>
	<path id="Layer" class="s7" d="m75.2 126.8l26-15.5q0.4-0.2 0.9-0.3 0.4-0.2 0.9-0.2 0.4 0 0.9 0.2 0.4 0.1 0.8 0.3l20.5 12.2q0.8 0.5 1.3 1.3 0.4 0.8 0.4 1.7 0 0.9-0.5 1.7-0.4 0.8-1.2 1.2l-24.8 14.1q-0.4 0.2-0.9 0.3-0.4 0.2-0.8 0.2-0.5 0-0.9-0.2-0.4-0.1-0.8-0.3l-21.7-12.2q-0.6-0.3-1-0.9-0.3-0.6-0.4-1.3 0-0.7 0.4-1.4 0.3-0.6 0.9-0.9z"/>
	<path id="Layer" class="s7" d="m73.9 129v-4.3l3 1-0.9 3.4-2.1-0.1z"/>
	<path id="Layer" class="s7" d="m126.9 126.2v-4l-2.5 1.2 1.2 2.3 1.3 0.5z"/>
	<path id="Layer" class="s16" d="m75.2 122.5l26-15.5q0.4-0.2 0.9-0.3 0.4-0.1 0.9-0.1 0.4 0 0.9 0.1 0.4 0.1 0.8 0.3l20.5 12.2q0.8 0.5 1.3 1.3 0.4 0.8 0.4 1.7 0 0.9-0.5 1.7-0.4 0.8-1.2 1.2l-24.8 14.1q-0.4 0.3-0.9 0.4-0.4 0.1-0.8 0.1-0.5 0-0.9-0.1-0.4-0.1-0.8-0.4l-21.7-12.2q-0.6-0.3-1-0.9-0.3-0.6-0.3-1.3-0.1-0.7 0.3-1.3 0.3-0.7 0.9-1z"/>
	<path id="Layer" class="s8" d="m97.4 117.1l3-1.3 6.2 11.9-3 1.3-6.2-11.9z"/>
	<path id="Layer" fill-rule="evenodd" class="s8" d="m111.7 120.1q0.5 0 1 0 0.5 0 1 0.1 0.5 0.1 0.9 0.3 0.5 0.1 1 0.3c1 0.5 1.5 1 1.5 1.7 0 0.8-0.5 1.3-1.6 1.8q-1 0.3-2 0.5-1 0.1-2 0.1-1 0-2-0.2-1-0.2-1.9-0.5c-1-0.5-1.5-1-1.5-1.7 0-0.8 0.5-1.3 1.6-1.8q0.5-0.2 1-0.3 0.5-0.1 1-0.2 0.5-0.1 1-0.1 0.5-0.1 1 0zm2.2 2.4q0-0.4-0.7-0.7-0.2-0.1-0.4-0.2-0.2 0-0.4-0.1-0.2 0-0.4 0-0.2-0.1-0.4 0-0.2-0.1-0.5 0-0.2 0-0.4 0-0.2 0-0.4 0.1-0.2 0.1-0.4 0.1-0.7 0.3-0.7 0.7 0 0.4 0.7 0.8 0.2 0.1 0.4 0.1 0.2 0.1 0.4 0.1 0.2 0.1 0.5 0.1 0.2 0 0.4 0 0.2 0 0.4 0 0.2 0 0.4 0 0.2-0.1 0.4-0.1 0.2-0.1 0.4-0.2 0.7-0.3 0.7-0.7z"/>
	<path id="Layer" fill-rule="evenodd" class="s8" d="m97.9 122.4q0 1-1.6 1.7-1 0.3-1.9 0.5-1 0.2-2.1 0.2-1 0-2-0.2-0.9-0.2-1.9-0.6c-1-0.4-1.5-1-1.5-1.7 0-0.7 0.5-1.3 1.6-1.7q1-0.4 2-0.5 0.9-0.2 2-0.2 1 0 2 0.2 0.9 0.2 1.9 0.5 1.5 0.8 1.5 1.8zm-7.1 0.6q0.2 0.1 0.4 0.2 0.2 0.1 0.4 0.1 0.2 0 0.4 0.1 0.2 0 0.4 0 0.2 0 0.4 0 0.2 0 0.4-0.1 0.3 0 0.5-0.1 0.2 0 0.4-0.1 0.7-0.3 0.7-0.7-0.1-0.4-0.8-0.8-0.3-0.1-0.8-0.2-0.4-0.1-0.8-0.1-0.4 0-0.8 0.1-0.5 0.1-0.9 0.2-0.7 0.3-0.7 0.7 0.1 0.4 0.8 0.7z"/>
	<path id="Layer" class="s17" d="m242.7 26.1q-1.5 0-3 0.3-1.6 0.2-3.1 0.5-1.5 0.4-3 0.9-1.4 0.5-2.9 1.1c-6 2.8 12 7.7 12 7.7"/>
	<path id="Layer" class="s13" d="m251.6 65.8c-9.8 3.4-20.8-2.5-24.5-13.3-3.7-10.7 1.2-22.1 10.9-25.5 9.8-3.4 20.8 2.5 24.5 13.2 3.7 10.7-1.2 22.1-10.9 25.6z"/>
	<path id="Layer" class="s18" d="m246 67c-9.8 3.4-20.8-2.5-24.5-13.2-3.7-10.7 1.2-22.2 10.9-25.6 9.8-3.4 20.8 2.5 24.5 13.2 3.7 10.8-1.1 22.2-10.9 25.6z"/>
	<path id="Layer" class="s19" d="m245.1 64.6c-8.5 3-18.1-2.2-21.4-11.6-3.3-9.4 1-19.4 9.6-22.4 8.6-3 18.1 2.2 21.4 11.6 3.3 9.4-1 19.4-9.6 22.4z"/>
	<path id="Layer" class="s13" d="m243.1 38q0.2 0 0.4 0.2 0.2 0.1 0.4 0.2 0.2 0.1 0.4 0.3 0.2 0.1 0.3 0.3l0.5 0.4-2.4 2.6q-0.2-0.2-0.5-0.5-0.1-0.1-0.3-0.2-0.1-0.1-0.3-0.1-0.1-0.1-0.3-0.2-0.1-0.1-0.3-0.2-0.2-0.1-0.4-0.2-0.2 0-0.5-0.1-0.2 0-0.4-0.1-0.3 0-0.5 0-0.3 0-0.5 0-0.3 0.1-0.5 0.1-0.2 0.1-0.5 0.2-0.2 0.1-0.4 0.3-0.1 0.1-0.3 0.3-0.1 0.1-0.2 0.3-0.1 0.2-0.1 0.4-0.1 0.2-0.1 0.4 0 0.3 0.1 0.5 0.1 0.2 0.2 0.4 0.1 0.2 0.3 0.4 0.2 0.1 0.4 0.2 0.3 0.2 0.6 0.3 0.3 0.2 0.5 0.3 0.3 0.1 0.6 0.2 0.3 0.2 0.6 0.2 1.4 0.4 2.8 1 0.3 0.1 0.6 0.3 0.3 0.1 0.6 0.4 0.3 0.2 0.6 0.4 0.3 0.3 0.5 0.6 0.2 0.3 0.4 0.7 0.2 0.3 0.4 0.7 0.1 0.4 0.1 0.8 0.1 0.4 0.1 0.8 0 0.5-0.1 1-0.1 0.5-0.2 1-0.2 0.5-0.5 0.9-0.2 0.4-0.5 0.8-0.4 0.4-0.8 0.8-0.5 0.3-0.9 0.5-0.5 0.3-1 0.5-0.6 0.1-1.1 0.2v2.6h-3.5v-2.5q-0.2 0-0.5-0.1-0.3 0-0.5-0.1-0.3-0.1-0.5-0.1-0.2-0.1-0.5-0.2-0.2-0.1-0.4-0.2-0.2 0-0.4-0.1-0.2-0.1-0.4-0.2-0.2-0.1-0.4-0.3-0.1-0.1-0.3-0.1-0.1-0.1-0.3-0.2-0.1-0.1-0.2-0.2-0.2-0.1-0.3-0.2-0.1-0.1-0.2-0.2-0.1-0.1-0.2-0.2-0.1 0-0.1-0.1-0.1-0.1-0.2-0.2l-0.2-0.2 2.3-2.5q0.2 0.2 0.5 0.5 0.2 0.2 0.4 0.3 0.1 0.1 0.3 0.2 0.2 0.1 0.4 0.2 0.2 0.1 0.4 0.2 0.3 0.2 0.6 0.3 0.3 0.1 0.6 0.2 0.3 0 0.6 0.1 0.3 0 0.6 0 0.3 0 0.6 0 0.3-0.1 0.6-0.2 0.3 0 0.6-0.2 0.3-0.1 0.5-0.3 0.2-0.2 0.3-0.4 0.2-0.1 0.3-0.4 0.1-0.2 0.2-0.4 0-0.3 0-0.5 0-0.3-0.1-0.5 0-0.2-0.2-0.4-0.1-0.2-0.3-0.4-0.2-0.1-0.4-0.2-0.3-0.2-0.5-0.4-0.3-0.1-0.6-0.2-0.3-0.2-0.6-0.3-0.3-0.1-0.6-0.1-1.4-0.4-2.7-0.9-0.4-0.2-0.7-0.4-0.3-0.1-0.6-0.4-0.3-0.2-0.6-0.4-0.2-0.3-0.5-0.6-0.2-0.3-0.4-0.7-0.2-0.3-0.3-0.7-0.2-0.4-0.2-0.8-0.1-0.4-0.1-0.8 0-0.5 0.1-0.9 0.1-0.5 0.3-0.9 0.2-0.5 0.5-0.9 0.2-0.4 0.5-0.7 0.4-0.4 0.8-0.7 0.4-0.3 0.9-0.6 0.5-0.2 1-0.4 0.5-0.2 1-0.2v-2.6h3.5v2.6q0.3 0.1 0.6 0.1 0.3 0.1 0.6 0.2 0.3 0.1 0.6 0.3 0.3 0.1 0.5 0.3z"/>
	<path id="Layer" class="s6" d="m247.1 130.3l8.2 4.7v-35.3l6.4 3.7-10.1-23.4-10.7 11.9 6.5 3.6-0.3 34.8z"/>
	<path id="Layer" class="s6" d="m272.6 146l8.1 4.5v-63.6l6.5 3.7-10.1-23.4-10.7 12 6.5 3.6-0.3 63.2z"/>
	<path id="Layer" class="s13" d="m196.9 61.6c-13.4 5.2-28.7-2-34.1-16-5.4-14 1.1-29.6 14.6-34.7 13.4-5.2 28.7 1.9 34.1 16 5.4 14-1.1 29.5-14.6 34.7z"/>
	<path id="Layer" class="s6" d="m194.8 62.4c-12.8 5-27.5-2.4-32.9-16.4-5.4-14.1 0.6-29.4 13.4-34.3 12.8-5 27.5 2.4 32.9 16.4 5.4 14.1-0.6 29.4-13.4 34.3z"/>
	<path id="Layer" class="s9" d="m155.2 31.2l31.2 5.8-15.8-28.9c0 0-13.8 6.8-15.4 23.1z"/>
	<path id="Layer" class="s20" d="m186.4 37l23.4-3c0 0-0.4-13.4-15.6-21.4q-2.4-1.3-5.1-1.9-2.7-0.6-5.4-0.6-2.8 0-5.5 0.6-2.7 0.6-5.1 1.9z"/>
	<path id="Layer" class="s21" d="m198.6 171.4l46.1-4c0 0 4.2 3.7 3.4 4.9l-49.5 4.2c0 0-1.8-4.1 0-5.1z"/>
	<path id="Layer" class="s21" d="m200.3 180.3l48.6-3.8-1.5 1.9-45.5 3.9-1.6-2z"/>
	<path id="Layer" fill-rule="evenodd" class="s6" d="m222.8 193.8c-17.3 0-30.9-9-30.9-20.4 0-11.4 13.5-20.4 30.9-20.4 17.3 0 30.9 9 30.9 20.4 0 11.5-13.6 20.4-30.9 20.4zm0-33.8c-13 0-23.9 6.1-23.9 13.4 0 7.3 11 13.4 23.9 13.4 12.9 0 23.9-6.1 23.9-13.4 0-7.3-11-13.4-23.9-13.4z"/>
	<path id="Layer" class="s6" d="m198.3 181.1l-38.2 22.6c-5.5 3.3-0.5 12 5 8.7l38.2-22.7c5.5-3.3 0.5-11.9-5-8.6z"/>
	<g id="Layer" style="opacity: .2">
		<path id="Layer" fill-rule="evenodd" class="s22" d="m222.8 193.8c-17.3 0-30.9-9-30.9-20.4 0-11.4 13.5-20.4 30.9-20.4 17.3 0 30.9 9 30.9 20.4 0 11.5-13.6 20.4-30.9 20.4zm0-33.8c-13 0-23.9 6.1-23.9 13.4 0 7.3 11 13.4 23.9 13.4 12.9 0 23.9-6.1 23.9-13.4 0-7.3-11-13.4-23.9-13.4z"/>
		<path id="Layer" class="s22" d="m198.3 181.1l-38.2 22.6c-5.5 3.3-0.5 12 5 8.7l38.2-22.7c5.5-3.3 0.5-11.9-5-8.6z"/>
	</g>
	<path id="Layer" class="s23" d="m143.8 53.1q-1.5 1.3-2.8 2.7-1.3 1.5-2.4 3.1-1.1 1.6-2 3.4-0.9 1.8-1.5 3.6c-3.1 8.5 4.6 22.4 4.6 22.4l12-9.5"/>
	<path id="Layer" class="s24" d="m142.5 165.4l-3.2-1.8 0.8-4.6c0 0 4.8 0.4 5.2 2.2"/>
	<path id="Layer" class="s6" d="m143.7 165.3c0.8-0.4 1.5-0.8 2.3-1.2 1.9-1 4.6-2.1 5.7-4q0.2-0.3 0.3-0.6 0.1-0.3 0-0.7 0-0.3-0.1-0.6-0.1-0.4-0.3-0.6c-1.7-2.1-5.4 1.3-7.3-1-0.4-0.5-0.6-7.6-0.6-7.6l-7.2 2c0 0-1.3 14.3-1.1 15.2 0.1 0.9 2.6 1.8 2.6 1.8q0.3-0.1 0.5-0.2 0.3 0 0.6-0.1 0.2-0.1 0.5-0.3 0.2-0.1 0.5-0.2c0.7-0.6 0.1-7.3 1-6.4 0.9 1 1.4 4.6 1.4 4.6q0.1 0.1 0.3 0.1 0.2 0 0.3-0.1 0.2 0 0.3 0 0.2 0 0.3-0.1z"/>
	<path id="Layer" class="s24" d="m156.4 172.4l-3.3-1.8 0.8-4.7c0 0 4.9 0.5 5.3 2.2"/>
	<path id="Layer" class="s6" d="m157.6 172.3c0.7-0.5 1.5-0.9 2.3-1.3 1.8-1 4.5-2.1 5.7-4q0.2-0.2 0.2-0.6 0.1-0.3 0.1-0.6 0-0.4-0.1-0.7-0.2-0.3-0.4-0.6c-1.7-2-5.4 1.3-7.3-1-0.4-0.4-0.5-7.6-0.5-7.6l-7.3 2c0 0-1.2 14.4-1.1 15.3 0.2 0.9 2.7 1.7 2.7 1.7q0.2 0 0.5-0.1 0.3-0.1 0.5-0.2 0.3-0.1 0.6-0.2 0.2-0.2 0.4-0.3c0.8-0.6 0.1-7.3 1-6.3 1 0.9 1.4 4.6 1.4 4.6q0.2 0 0.4 0 0.1 0 0.3 0 0.1 0 0.3-0.1 0.1 0 0.3 0z"/>
	<path id="Layer" class="s22" d="m132.8 125.7l-2.1 28.5c0 0 3.4 4.7 14.8 2.1l0.1-19.3"/>
	<path id="Layer" class="s22" d="m146 131.3c-0.3 2.5 0 29.6 0 29.6 0 0 3.2 5.9 16.9 0l-0.2-23"/>
	<path id="Layer" class="s22" d="m134 133q1.3 0.8 2.7 1.5 1.4 0.7 2.8 1.3 1.4 0.6 2.8 1.2 1.5 0.5 3 1 0.2-0.1 0.3-0.1 0.2 0 0.3 0.1 0.2 0 0.3 0.1 0.1 0.2 0.1 0.3 0.9 0.3 1.9 0.5 0.9 0.2 1.8 0.4 0.9 0.3 1.9 0.4 0.9 0.2 1.8 0.4c3.2 0.5 5.9-1.9 9.2-2 0-12.6 0-48.5-5.3-56l-15.9-5.3c-0.1 1.3-7.7 10.1-7.5 20.9q0 3.6 0 7.2-0.1 3.6-0.3 7.1-0.2 3.6-0.5 7.2-0.2 3.6-0.7 7.1"/>
	<path id="Layer" class="s23" d="m159 67.5l-1.5 14.4c0 0-11.8 0.5-16.9-3v-12.3"/>
	<path id="Layer" class="s25" d="m174.1 57.9l-1.2 1.7q0.2-0.5 0.4-1 0.3-0.5 0.5-1 0.2-0.6 0.4-1.1 0.2-0.5 0.4-1c0.3-1-1.2-1.4-1.6-0.4l-0.2 0.5q0.3-0.8 0.5-1.6 0-0.3-0.1-0.6-0.2-0.2-0.5-0.3-0.3-0.1-0.6 0.1-0.3 0.1-0.4 0.4-0.1 0.5-0.2 1-0.2 0.5-0.3 1-0.2 0.5-0.3 1-0.2 0.5-0.4 1 0.1-0.4 0.2-0.9 0.1-0.4 0.2-0.8 0-0.5 0.1-0.9 0-0.5 0.1-0.9c0.1-1-1.5-1-1.6 0q0 0.5-0.1 1-0.1 0.5-0.2 1-0.1 0.5-0.2 1-0.1 0.5-0.2 1 0-0.7-0.1-1.4 0 0-0.1-0.1 0-0.1 0-0.2-0.1-0.1-0.1-0.1-0.1-0.1-0.2-0.1c0-0.2-0.1-0.4-0.1-0.6q-0.1-0.2-0.4-0.4-0.2-0.1-0.5-0.1-0.3 0.1-0.5 0.3-0.2 0.2-0.2 0.5l-0.1 6q-0.1 0.2-0.2 0.4-0.1 0.3-0.3 0.5-0.1 0.2-0.3 0.4-0.1 0.2-0.3 0.4 0.3 0.2 0.6 0.4 0.3 0.2 0.5 0.4 0.3 0.2 0.6 0.4 0.3 0.3 0.5 0.5 0.3 0.2 0.5 0.4 0.2 0.2 0.5 0.4 0.2 0.3 0.4 0.5 0.2 0.2 0.4 0.4 0.8-0.9 1.5-1.9 0 0 0 0 0.1-0.1 0.1-0.1 0 0 0 0 0-0.1 0-0.1 2.2-3.1 4.4-6.2c0.7-0.8-0.7-1.6-1.3-0.8z"/>
	<path id="Layer" class="s23" d="m151.5 54.3c0 0 5.6 1.5 7.9 5.1q0.5 0.9 1 1.9 0.5 0.9 1 1.9 0.4 1 0.9 2 0.4 0.9 0.8 1.9l4.1-6.4c0 0 5 1.6 7 4 0 0-6 13-11.1 14.1-5.1 1.2-10.7-7.7-10.7-7.7 0 0-1.1 3.7-0.9-0.2"/>
	<path id="Layer" class="s26" d="m155.1 68.2q-0.6-0.5-1.2-1.1-0.5-0.6-0.9-1.2-0.5-0.6-0.9-1.3-0.3-0.7-0.6-1.4c-0.6-2.3 0.2-4.3 1-6.5q0.3-0.7 0.6-1.5 0.2-0.9 0.4-1.7 0.2-0.8 0.3-1.7 0.1-0.8 0.2-1.6c0.1-2.3-0.2-4.5-0.3-6.7q-0.1-0.1-0.1-0.1 0 0 0-0.1 0 0 0 0 0-0.1 0.1-0.1c-0.8-2.5-2.3-4.6-5.3-4.9-7.9-0.6-8.3 8-8.2 11.5 0 3.5 0.4 5.9-2.2 7.4-2.6 1.5-4.5 5.3-2 8.4 2.5 3.1 0.3 2-1.4 4.8-1.6 2.7-1.2 6.2 2.2 7.5 3.4 1.2 19.1-1.1 20.5-2.6q0.2-0.2 0.4-0.5 0.1-0.2 0.2-0.5 0.1-0.3 0.1-0.6 0.1-0.2 0.1-0.5-0.2-0.8-0.4-1.5-0.3-0.7-0.7-1.3-0.4-0.6-0.9-1.2-0.4-0.6-1-1z"/>
</svg>