<svg version="1.2" xmlns="http://www.w3.org/2000/svg" viewBox="0 0 252 240" width="252" height="240">
	<title>diy-svg</title>
	<style>
		.s0 { opacity: .5;fill: #e6e6e6 } 
		.s1 { fill: #f4a28c } 
		.s2 { opacity: .2;fill: #c4888b } 
		.s3 { opacity: .5;fill: #c4888b } 
		.s4 { fill: #c4888b } 
		.s5 { fill: #24285b } 
		.s6 { opacity: .1;fill: #ffffff } 
		.s7 { fill: #ffffff } 
		.s8 { fill: #ffd200 } 
		.s9 { opacity: .1;fill: #000000 } 
		.s10 { fill: #e6e6e6 } 
	</style>
	<path id="Layer" class="s0" d="m141.6 247.5c-91.1 0-164.7-5.1-164.7-11.4 0-6.3 73.6-11.4 164.7-11.4 91 0 164.6 5.1 164.6 11.4 0 6.3-73.6 11.4-164.6 11.4z"/>
	<path id="Layer" class="s1" d="m45.9 159.9l-8.9 28.3q-0.9 2.9-2.4 5.5-1.4 2.6-3.4 4.9-2 2.3-4.3 4.1-2.4 1.8-5.1 3.1l-13 6.2 0.5 3.8 19.4-4.2q3.5-1 6.6-2.7 3.1-1.7 5.9-4 2.7-2.3 4.9-5.1 2.2-2.8 3.7-6l13.8-28.3z"/>
	<path id="Layer" class="s2" d="m234.2 224.7c0 0-8.9-2.5-10.8-10.8 0 0 13.8-2.8 14.2 11.5z"/>
	<path id="Layer" class="s3" d="m235.3 223.8c0 0-6.2-9.9-0.7-19.1 0 0 10.5 6.7 5.8 19.1z"/>
	<path id="Layer" class="s4" d="m236.9 223.8c0 0 3.3-10.4 13.3-12.4 0 0 1.9 6.8-6.5 12.4z"/>
	<path id="Layer" class="s5" d="m230.4 223.6l1.9 12.3 11.4 0.1 1.6-12.4h-14.9z"/>
	<path id="Layer" class="s5" d="m116.9 73h98.1v163.1h-98.1z"/>
	<path id="Layer" class="s5" d="m109.8 25.1l96.8-16 6.1 37.2-96.8 16z"/>
	<path id="Layer" class="s4" d="m128.2 11.6l57.8-9.3 1.7 10.8-57.8 9.3z"/>
	<path id="Layer" class="s6" d="m125 130.9c0-5.1 4.2-9.3 9.3-9.3h63.1c5.2 0 9.3 4.2 9.3 9.3v7.5c0 5.1-4.1 9.3-9.3 9.3h-63.1c-5.1 0-9.3-4.2-9.3-9.3z"/>
	<path id="Layer" class="s4" d="m191.8 141.7c-3.8 0-7-3.2-7-7 0-3.9 3.2-7 7-7 3.9 0 7 3.1 7 7 0 3.8-3.1 7-7 7z"/>
	<path id="Layer" class="s7" d="m133.4 131.4h41.1v6.6h-41.1z"/>
	<path id="Layer" class="s6" d="m125 92.9c0-5.1 4.2-9.3 9.3-9.3h63.1c5.2 0 9.3 4.2 9.3 9.3v7.5c0 5.1-4.1 9.3-9.3 9.3h-63.1c-5.1 0-9.3-4.2-9.3-9.3z"/>
	<path id="Layer" class="s4" d="m191.8 103.7c-3.8 0-7-3.2-7-7 0-3.9 3.2-7 7-7 3.9 0 7 3.1 7 7 0 3.8-3.1 7-7 7z"/>
	<path id="Layer" class="s7" d="m133.4 93.4h41.1v6.6h-41.1z"/>
	<path id="Layer" class="s6" d="m120.7 39.2c-0.8-5 2.6-9.8 7.7-10.6l62.5-10.1c5.1-0.9 9.9 2.6 10.7 7.7l1.2 7.4c0.8 5.1-2.6 9.9-7.7 10.7l-62.5 10.1c-5.1 0.8-9.9-2.7-10.7-7.7z"/>
	<path id="Layer" class="s4" d="m186.8 38.5c-3.9 0-7-3.1-7-7 0-3.8 3.1-6.9 7-6.9 3.8 0 6.9 3.1 6.9 6.9 0 3.9-3.1 7-6.9 7z"/>
	<path id="Layer" class="s7" d="m128.6 37.7l40.5-6.6 1.1 6.5-40.6 6.7z"/>
	<path id="Layer" class="s6" d="m125 170.5c0-5.1 4.2-9.2 9.3-9.2h63.1c5.2 0 9.3 4.1 9.3 9.2v7.6c0 5.1-4.1 9.2-9.3 9.2h-63.1c-5.1 0-9.3-4.1-9.3-9.2z"/>
	<path id="Layer" class="s4" d="m191.8 181.3c-3.8 0-7-3.1-7-7 0-3.8 3.2-6.9 7-6.9 3.9 0 7 3.1 7 6.9 0 3.9-3.1 7-7 7z"/>
	<path id="Layer" class="s7" d="m133.4 171h41.1v6.7h-41.1z"/>
	<path id="Layer" class="s6" d="m125 210.2c0-5.1 4.2-9.3 9.3-9.3h63.1c5.2 0 9.3 4.2 9.3 9.3v7.5c0 5.1-4.1 9.3-9.3 9.3h-63.1c-5.1 0-9.3-4.2-9.3-9.3z"/>
	<path id="Layer" class="s4" d="m191.8 221c-3.8 0-7-3.2-7-7 0-3.9 3.2-7 7-7 3.9 0 7 3.1 7 7 0 3.8-3.1 7-7 7z"/>
	<path id="Layer" class="s7" d="m133.4 210.7h41.1v6.6h-41.1z"/>
	<path id="Layer" class="s1" d="m75.2 167.9l4.2 60.7-3.9 1.3-15.4-56.7 15.1-5.3z"/>
	<path id="Layer" class="s4" d="m80.2 229.6c0 0 0.8 3.6 3.5 4.7 2.7 1.1 1.4 5-2.7 2.7q-0.5-0.3-1-0.6-0.4-0.3-0.9-0.6-0.4-0.3-0.9-0.7-0.4-0.3-0.8-0.7-0.4-0.3-0.8-0.5-0.5-0.3-0.9-0.5-0.5-0.2-1-0.3-0.5-0.1-1-0.2-0.2-0.1-0.3-0.1-0.2-0.1-0.3-0.3-0.2-0.1-0.2-0.3-0.1-0.1-0.2-0.3c-0.5-2 4-3.9 4-3.9z"/>
	<path id="Layer" class="s4" d="m9.3 215.8c0 0-2.8 2.1-2.7 4.9 0.1 2.7-3.8 3-3.3-1.3q0-0.6 0.1-1.1 0.1-0.5 0.2-1 0.1-0.5 0.2-1 0.1-0.5 0.2-0.9 0.2-0.5 0.2-1 0.1-0.4 0.1-0.9 0-0.5-0.1-0.9-0.1-0.5-0.2-1-0.1-0.1 0-0.3 0-0.2 0-0.4 0.1-0.1 0.2-0.3 0.1-0.1 0.3-0.2c1.5-1.2 4.8 1.9 4.8 1.9z"/>
	<path id="Layer" class="s1" d="m52 80l1.5 5.8-4.8 2.5-0.8-10 4.1 1.7z"/>
	<path id="Layer" class="s1" d="m46.8 72.7q0.4-0.8 1.2-1.3 0.7-0.5 1.6-0.5 0.9-0.1 1.7 0.2 0.9 0.4 1.4 1.1c1.8 2.2 3.8 5.7 1 7.2-4.2 2.4-7.5-3-7.5-3q0-0.5 0-0.9 0-0.5 0-1 0.1-0.4 0.2-0.9 0.2-0.4 0.4-0.9z"/>
	<path id="Layer" class="s8" d="m19.5 136.6l-21.1-27 19.1-14.9 21.1 27z"/>
	<path id="Layer" class="s1" d="m27.4 98.3c0 0-20.4 31.8-16.3 36.5 12.9 14.9 41.6-18.6 41.6-18.6z"/>
	<path id="Layer" class="s4" d="m73.4 93.5c-2.9-2.1-6.1-3.7-9.5-4.9-3.4-1.1-7-1.8-10.6-1.8-3.6-0.1-7.2 0.4-10.6 1.4-3.5 1-6.7 2.6-9.7 4.6-5.3 3.6-9.4 9-7.6 16.9 4.4 18.4 18.5 30.5 19 46.7l33.4-2.2v-20.9q0-1.4 0.3-2.9 0.3-1.4 0.9-2.8 0.6-1.3 1.4-2.5 0.9-1.3 2-2.3c2.9-2.6 5.8-7 3.8-13-1.8-5.3-6.4-11.6-12.8-16.3z"/>
	<path id="Layer" class="s1" d="m49.4 76.5c0 0-1-1-1.5 0.2-0.5 1.2 1.2 1.9 1.8 1.3 0.6-0.5-0.3-1.5-0.3-1.5z"/>
	<path id="Layer" class="s9" d="m56.9 102.2c0 0-7.2 13.8 1.2 27.2 8.3 13.5-7.5 26.6-7.5 26.6l27.2-1.8v-11.9c0 0-1.7-15 3.5-18.4 0 0 8.9-6.4 4.1-16.1-4.8-9.7-28.5-5.6-28.5-5.6z"/>
	<path id="Layer" class="s5" d="m43 94c0.6-2.5 3.6-7-0.6-15.2-0.9-1.7-1.6-5.8 0.1-8.6 4-6.7 10.4-4.4 9.6-0.6-0.7 3.7-1.3 5.5-1.3 5.5 0 0 12.2 8.7 10.4 15.1-1.6 5.7-20.9 14.1-18.2 3.8z"/>
	<path id="Layer" class="s5" d="m42.9 147.9h34.9l5.5 48.2-51.7-2.3 11.3-45.9z"/>
	<path id="Layer" class="s1" d="m58.3 112c-0.8-1-1.5-2.2-1.8-3.4-0.4-1.2-0.5-2.5-0.4-3.8 0.1-1.3 0.5-2.6 1.1-3.7 0.7-1.1 1.5-2.1 2.5-3q0.8-0.5 1.6-1.1 0.7-0.6 1.5-1.1 0.8-0.5 1.6-1 0.9-0.5 1.7-1c13.3-7.6 35.4-24.4 44.7-47.6 0 0 2.2-8.5 8.6-8.2 6.5 0.3 4.3 8.3-2.2 8.3 0 0-5.2 50.3-43.9 69q-1.9 0.9-4 1.1-2.1 0.3-4.1-0.2-2-0.5-3.8-1.6-1.8-1.1-3.1-2.7z"/>
	<path id="Layer" class="s10" d="m34 28v18.4h11.9l2.6 7.3 3-7.3h11.9v-18.4h-29.4z"/>
	<path id="Layer" class="s9" d="m47.2 41.3q-0.1 0-0.2-0.1-0.1 0-0.2 0 0-0.1-0.1-0.1-0.1-0.1-0.2-0.2l-3.1-4q-0.2-0.3-0.1-0.6 0-0.4 0.3-0.6 0.3-0.3 0.7-0.2 0.3 0 0.6 0.3l2.4 3.1 6-6.5q0.3-0.3 0.7-0.3 0.3 0 0.6 0.3 0.3 0.2 0.3 0.6 0 0.4-0.2 0.7l-6.8 7.3q-0.1 0.1-0.1 0.1-0.1 0.1-0.2 0.1-0.1 0-0.2 0.1-0.1 0-0.2 0z"/>
</svg>