<svg version="1.2" xmlns="http://www.w3.org/2000/svg" viewBox="0 0 306 287" width="306" height="287">
	<title>smart-choises-svg</title>
	<defs>
		<linearGradient id="g1" x1="266.6" y1="181.7" x2="201.9" y2="221" gradientUnits="userSpaceOnUse">
			<stop offset="0" stop-color="#f7931e"/>
			<stop offset="1" stop-color="#ffffff"/>
		</linearGradient>
		<linearGradient id="g2" x1="120.2" y1="242.8" x2="107.7" y2="259.9" gradientUnits="userSpaceOnUse">
			<stop offset="0" stop-color="#f7931e"/>
			<stop offset="1" stop-color="#ffffff"/>
		</linearGradient>
		<linearGradient id="g3" x1="165.7" y1="159.9" x2="127.9" y2="211.9" gradientUnits="userSpaceOnUse">
			<stop offset="0" stop-color="#f7931e"/>
			<stop offset="1" stop-color="#ffffff"/>
		</linearGradient>
		<linearGradient id="g4" x1="44.8" y1="206.1" x2="34.9" y2="219.6" gradientUnits="userSpaceOnUse">
			<stop offset="0" stop-color="#f7931e"/>
			<stop offset="1" stop-color="#ffffff"/>
		</linearGradient>
	</defs>
	<style>
		.s0 { fill: #f4b269 } 
		.s1 { mix-blend-mode: multiply;fill: url(#g1) } 
		.s2 { mix-blend-mode: multiply;fill: url(#g2) } 
		.s3 { mix-blend-mode: multiply;fill: url(#g3) } 
		.s4 { fill: #ffa75f } 
		.s5 { fill: #ef8a3f } 
		.s6 { fill: #ffb37b } 
		.s7 { fill: #c4888b } 
		.s8 { opacity: .2;fill: #000000 } 
		.s9 { opacity: .5;fill: #ffffff } 
		.s10 { fill: #ed7e7e } 
		.s11 { fill: #e26d6d } 
		.s12 { fill: #fc9d9d } 
		.s13 { opacity: .4;fill: #06489e } 
		.s14 { fill: #ffffff } 
		.s15 { fill: #56403d } 
		.s16 { fill: #ffa197 } 
		.s17 { fill: #f2f2f2 } 
		.s18 { fill: #ff7b39 } 
		.s19 { fill: #3b125e } 
		.s20 { fill: #662d91 } 
		.s21 { fill: #fcbf81 } 
		.s22 { fill: #34323d } 
		.s23 { fill: #e55600 } 
		.s24 { mix-blend-mode: multiply;fill: url(#g4) } 
		.s25 { fill: #06577a } 
		.s26 { fill: #99ce34 } 
	</style>
	<g id="Layer">
		<g id="Layer_2">
			<path id="Layer" class="s0" d="m300.1 171.5l-115.5-67.2q-0.7-0.3-1.3-0.5-0.7-0.2-1.5-0.2-0.7 0-1.4 0.2-0.7 0.2-1.3 0.5l-172.7 98.9c-0.8 0.4-1.5 1.1-2 2-0.5 0.8-0.8 1.7-0.8 2.7 0 1 0.3 1.9 0.8 2.7 0.5 0.9 1.2 1.6 2 2l110.4 63.8q2.1 1.2 4.3 1.8 2.3 0.6 4.7 0.6 2.3 0 4.6-0.6 2.2-0.6 4.3-1.8l165.4-95.5c0.8-0.4 1.5-1.1 2-1.9 0.5-0.9 0.7-1.8 0.7-2.8 0-0.9-0.2-1.9-0.7-2.7-0.5-0.8-1.2-1.5-2-2z"/>
			<path id="Layer" class="s1" d="m266.8 174.1c-5.1 3.3-62.7 37.3-67.7 40.7 8.6 4.7 11 6 11.9 6.7l68.5-39.6z"/>
			<path id="Layer" class="s2" d="m109 241.8c-5.1 3.3-20.5 10.2-25.5 13.6 8.6 4.7 27.7 15.7 28.7 16.3l24.2-13.4z"/>
			<path id="Layer" class="s3" d="m139.5 153.1c-15.3 10.2-60.6 41.7-75.8 52.1 25.8 14.2 70.8 39.5 73.7 41.6l68.2-46.8z"/>
			<path id="Layer" class="s4" d="m271.6 150l7.9-4.6v36.5l-7.4 4.3-0.5-36.2z"/>
			<path id="Layer" class="s5" d="m271.6 150l-8-4.6 0.2 36 8.3 4.8-0.5-36.2z"/>
			<path id="Layer" class="s6" d="m263.6 145.4l8-4.7 7.9 4.7-7.9 4.6-8-4.6z"/>
			<path id="Layer" class="s7" d="m257.3 164.6l7.9-4.6v30.1l-7.5 4.3-0.4-29.8z"/>
			<path id="Layer" class="s7" d="m257.3 164.6l-7.9-4.6 0.1 29.6 8.2 4.8-0.4-29.8z"/>
			<path id="Layer" class="s7" d="m249.4 160l7.9-4.7 7.9 4.7-7.9 4.6-7.9-4.6z"/>
			<path id="Layer" class="s7" d="m257.3 164.6l7.9-4.6v30.1l-7.5 4.3-0.4-29.8z"/>
			<path id="Layer" class="s8" d="m257.3 164.6l-7.9-4.6 0.1 29.6 8.2 4.8-0.4-29.8z"/>
			<path id="Layer" class="s9" d="m249.4 160l7.9-4.7 7.9 4.7-7.9 4.6-7.9-4.6z"/>
			<path id="Layer" class="s7" d="m241.8 178.6l8-4.5 0.3 24.8-8.3 4.8v-25.1z"/>
			<path id="Layer" class="s7" d="m241.8 178.6l-7.9-4.5v25l7.9 4.6v-25.1z"/>
			<path id="Layer" class="s8" d="m241.8 178.6l-7.9-4.5v25l7.9 4.6v-25.1z"/>
			<path id="Layer" class="s7" d="m233.9 174.1l7.9-4.7 8 4.7-8 4.5-7.9-4.5z"/>
			<path id="Layer" class="s9" d="m233.9 174.1l7.9-4.7 8 4.7-8 4.5-7.9-4.5z"/>
			<path id="Layer" class="s10" d="m225.6 194.9l7.9-4.6 0.3 17.9-8.2 4.6v-17.9z"/>
			<path id="Layer" class="s11" d="m225.6 194.9l-8-4.6v17.9l8 4.6v-17.9z"/>
			<path id="Layer" class="s12" d="m217.6 190.3l8-4.6 7.9 4.6-7.9 4.6-8-4.6z"/>
			<path id="Layer" class="s7" d="m238.6 45.3c0 0 16.8 4.2 11.8 31l-36.6-20.7c0 0 14.8-12.9 24.8-10.3z"/>
			<path id="Layer" class="s13" d="m238.6 45.3c0 0 16.8 4.2 11.8 31l-36.6-20.7c0 0 14.8-12.9 24.8-10.3z"/>
			<path id="Layer" class="s7" d="m188.5 210.4c-28.8-16.8-54-31.2-82.2-47.5 2.1-1 3.4-2.2 5.3-3.1 52.3-25.1 32.6-62 32.4-99.9-0.1-12.1 0.2-24.7 3.9-36.5 1.4-4.2 3.2-8.8 6.5-12.2 1.9-1.9 4.6-4.2 7.5-4.7 3.2-0.7 6.2 1.5 8.8 2.9l9 4.7 23.7 12.4 19.3 10.1 3.4 1.8 14.2 7.5c-2.7-1.5-8.6 3.3-10 4.8-3.4 3.5-5.2 8-6.5 12.3-3.8 11.7-4 24.4-3.9 36.5 0.1 37.4 18.2 85.5-31.4 110.9z"/>
			<path id="Layer" class="s14" d="m168.4 75.7v11.7l-3.1-2v-11.4q1.6 0.8 3.1 1.7z"/>
			<path id="Layer" class="s14" d="m162.2 68.2v15.8l-3.1-2v-15.3z"/>
			<path id="Layer" class="s14" d="m156 60v20.8l-3.1-2v-20.1c1.1 0.5 2.1 0.9 3.1 1.3z"/>
			<path id="Layer" class="s15" d="m192.3 89.3c-2.7-2.7-5.6-4.2-8.3-4.2q-0.2 0-0.4 0.1-0.1 0-0.3 0-0.2 0-0.4 0-0.2 0.1-0.4 0.1-0.8 0.2-1.5 0.5-0.7 0.3-1.4 0.8-0.6 0.4-1.2 1-0.6 0.6-1 1.2-0.5-0.6-0.9-1.2-0.5-0.6-1-1.2-0.5-0.6-1-1.2-0.5-0.6-1-1.1 0.8-0.9 1.7-1.6 0.8-0.8 1.8-1.4 1-0.6 2.1-1 1-0.4 2.2-0.7c5.2-1.1 10.6 1 15.3 5.7q0.5 0.6 1 1.2 0.5 0.5 1 1.1 0.4 0.6 0.9 1.2 0.4 0.6 0.8 1.2c-1.7 1-3.4 2.2-5 3.3q-0.3-0.5-0.7-1-0.3-0.5-0.7-1-0.4-0.4-0.8-0.9-0.4-0.4-0.8-0.9z"/>
			<path id="Layer" class="s16" d="m192.3 131.6c2.8-0.8 5.2-3.5 6.7-7.5q0.7-2 1.1-4.1 0.4-2.1 0.5-4.2 0-2.1-0.1-4.2-0.2-2.1-0.7-4.2-0.3-1.3-0.7-2.7-0.4-1.3-0.8-2.5-0.5-1.3-1.1-2.5-0.6-1.3-1.3-2.4c1.7-1.1 3.4-2.3 5-3.3q0.9 1.4 1.6 2.9 0.7 1.5 1.3 3 0.5 1.5 1 3.1 0.5 1.6 0.8 3.2 0.6 2.4 0.8 5 0.2 2.5 0.1 5-0.1 2.6-0.6 5.1-0.5 2.5-1.3 4.9c-2.2 5.8-5.8 9.6-10.4 11.1q-0.8-2.9-1.9-5.7z"/>
			<path id="Layer" class="s17" d="m169.6 93.9q0.3-0.7 0.6-1.5 0.3-0.7 0.7-1.5 0.4-0.7 0.9-1.4 0.4-0.7 0.9-1.3 0.5 0.5 1 1.1 0.5 0.6 1 1.2 0.5 0.7 1 1.3 0.5 0.6 0.9 1.2-0.2 0.4-0.4 0.8-0.2 0.3-0.4 0.7-0.1 0.4-0.3 0.8-0.2 0.4-0.3 0.7-0.7 2.1-1.1 4.2-0.3 2-0.4 4.2-0.1 2.1 0.1 4.2 0.2 2.1 0.6 4.2 0.4 2.1 1.1 4.1 0.7 2 1.6 3.9 1 1.9 2.2 3.6 1.2 1.8 2.6 3.4c3 3 6.2 4.4 9.1 4.1 0.7 1.9 1.4 3.8 2 5.8q-0.4 0-0.7 0.1-0.3 0.1-0.7 0.1-0.3 0-0.7 0-0.3 0.1-0.7 0.1c-4.3 0-8.7-2.1-12.5-6q-1.7-1.9-3.2-4-1.4-2.1-2.6-4.4-1.1-2.2-1.9-4.7-0.9-2.4-1.3-4.9-0.6-2.4-0.9-5-0.2-2.5-0.1-5.1 0.1-2.5 0.6-5 0.5-2.5 1.3-5z"/>
			<path id="Layer" class="s17" d="m185.6 115.8c-2 0.2-4-2.7-4.5-6.4-0.4-3.7 1-6.9 3-7.1 2.1-0.3 4.1 2.6 4.5 6.3 0.4 3.7-0.9 6.9-3 7.2z"/>
			<path id="Layer" class="s17" d="m210.7 73.5l-59.1-34.6q-0.3-0.1-0.6-0.1-0.3 0.1-0.5 0.4-0.1 0.2 0 0.5 0 0.3 0.3 0.5l59.1 34.6q0.3 0.1 0.6 0 0.3 0 0.4-0.3 0.2-0.3 0.1-0.6-0.1-0.3-0.3-0.4z"/>
			<path id="Layer" class="s17" d="m213.2 67.7l-59.1-34.5q-0.3-0.2-0.6-0.1-0.3 0.1-0.5 0.4-0.1 0.2 0 0.5 0 0.3 0.3 0.5l59.1 34.5q0.3 0.1 0.6 0.1 0.3-0.1 0.5-0.4 0.1-0.2 0-0.5 0-0.3-0.3-0.5z"/>
			<path id="Layer" class="s17" d="m210.7 79.7l-59.1-34.5q-0.3-0.2-0.6-0.1-0.3 0.1-0.5 0.4-0.1 0.2 0 0.5 0 0.3 0.3 0.5l59.1 34.5q0.3 0.1 0.6 0.1 0.3-0.1 0.4-0.4 0.2-0.2 0.1-0.5-0.1-0.3-0.3-0.5z"/>
			<path id="Layer" class="s17" d="m210.7 159.3l-59.1-34.6q-0.3-0.1-0.6-0.1-0.3 0.1-0.5 0.4-0.1 0.2 0 0.5 0 0.3 0.3 0.5l59.1 34.6q0.3 0.1 0.6 0 0.3 0 0.4-0.3 0.2-0.3 0.1-0.6-0.1-0.3-0.3-0.4z"/>
			<path id="Layer" class="s17" d="m210.3 165.7l-59.2-34.6q-0.2-0.1-0.5-0.1-0.3 0.1-0.5 0.4-0.1 0.3-0.1 0.6 0.1 0.3 0.4 0.4l59.1 34.6q0.3 0.1 0.6 0.1 0.3-0.1 0.4-0.4 0.2-0.2 0.1-0.5-0.1-0.3-0.3-0.5z"/>
			<path id="Layer" class="s17" d="m209.1 171.8l-59.1-34.5q-0.3-0.2-0.6-0.1-0.3 0.1-0.4 0.4-0.2 0.2-0.1 0.5 0.1 0.3 0.3 0.5l59.2 34.5q0.2 0.2 0.5 0.1 0.3-0.1 0.5-0.3 0.1-0.3 0.1-0.6-0.1-0.3-0.4-0.5z"/>
			<path id="Layer" class="s18" d="m161.3 150.2l9.2 33.1c0 0-0.8 9-12.4 5.3l-8-35c0 0 1.8-7.7 11.2-3.4z"/>
			<path id="Layer" class="s19" d="m147.5 134.7l5.8 19.6c0 0 5 2.5 6.5-2.3l-4.7-19.2z"/>
			<path id="Layer" fill-rule="evenodd" class="s19" d="m138.5 130.1c-5.5-4.4-10.1-11.1-12.8-18.9-2.6-7.8-3.2-15.9-1.4-22.7 1.8-7.4 6-12.6 11.8-14.5 11.6-4 25.2 6.1 31 23 5.8 16.9 1.2 33.3-10.4 37.3q-1.1 0.4-2.2 0.6-1.2 0.2-2.4 0.2-1.1 0.1-2.3 0-1.2-0.2-2.3-0.4-1.2-0.4-2.4-0.8-1.2-0.5-2.3-1-1.2-0.6-2.2-1.3-1.1-0.7-2.1-1.5zm-0.2-49.8c-3.6 1.2-6.3 4.7-7.6 9.8-1.4 5.6-0.9 12.3 1.4 19 2.2 6.6 6 12.2 10.5 15.8 4.2 3.2 8.4 4.3 12 3.1 7.8-2.7 10.7-15.9 6.2-28.8-3.4-10-10.4-17.5-17-19.1q-0.6-0.2-1.3-0.3-0.8-0.1-1.5 0-0.7 0-1.4 0.1-0.7 0.1-1.3 0.4z"/>
			<path id="Layer" class="s19" d="m145.4 83.1c-1.7-1.2-5.6 0.8-6.8 2-10.3 9.7-5.4 27.7 3.5 36.9 3.4 3.4 11.2 8.1 14.1 6.1 0 0-12.8 8.7-22-0.9-9.2-9.6-11.5-28.2-11.5-28.2l0.6-9.8 3.4-6.6 3.4-3.6 8.5-0.9z"/>
			<path id="Layer" fill-rule="evenodd" class="s20" d="m135.4 131c-5.6-4.4-10.1-11.1-12.8-18.9-2.7-7.8-3.2-15.9-1.5-22.7 1.9-7.4 6.1-12.6 11.9-14.5 11.6-4 25.2 6.1 31 23 5.8 17 1.2 33.3-10.4 37.3q-1.1 0.4-2.2 0.6-1.2 0.2-2.4 0.2-1.1 0.1-2.3 0-1.2-0.2-2.3-0.4-1.2-0.4-2.4-0.8-1.2-0.5-2.3-1-1.2-0.6-2.2-1.3-1.1-0.7-2.1-1.5zm-0.3-49.8c-3.5 1.2-6.2 4.7-7.5 9.8-1.4 5.6-0.9 12.3 1.3 19 2.3 6.6 6 12.2 10.6 15.8 4.2 3.2 8.4 4.3 12 3.1 7.8-2.7 10.7-15.8 6.2-28.8-3.4-10-10.4-17.5-17-19.1q-0.7-0.2-1.4-0.3-0.7 0-1.4 0-0.7 0-1.4 0.1-0.7 0.1-1.4 0.4z"/>
			<path id="Layer" fill-rule="evenodd" class="s21" d="m129.3 132c-0.4-0.1 2.8-4.6 3.1-5q0.6-0.9 1.2-1.9 0.5-0.9 1-1.9 0.6-0.9 1.1-1.9 0.5-1 1-2 0 0 0 0 0-0.1 0.1-0.1 0 0 0 0 0-0.1 0.1-0.1 0.1-0.2 0.2-0.4 0-0.2 0.1-0.3 0.1-0.2 0.3-0.4 0.1-0.2 0.2-0.4 0.1-0.1 0.3-0.2 0.2-0.1 0.4-0.1 0.2 0.1 0.3 0.3 0.2 0.1 0.2 0.3 0 0.6 0 1.2-0.1 0.5-0.2 1.1-0.1 0.5-0.3 1-0.2 0.5-0.5 1 0.5 0.6 1 1.2 0 0-0.1 0 0 0.1 0 0.1 0 0 0 0.1 0 0 0 0.1 0 0 0.1 0.1 0 0.1 0 0.2 0.1 0 0.1 0.1 0.1 0.1 0.1 0.2 0 0 0.1 0.1 0 0 0 0 0.1 0.1 0.1 0.1 0.1 0.1 0.1 0.1 0 0 0 0 0.1 0 0.1 0.1 0 0 0 0 0 0 0.1 0 0 0.2 0 0.4 0 0.3 0 0.5-0.1 0.2-0.2 0.4-0.1 0.2-0.3 0.4 0.2 0.2 0.2 0.5 0.1 0.2 0.1 0.4 0 0.3 0 0.5-0.1 0.3-0.1 0.5v0.1h-0.1q-0.3 0.1-0.6 0.3-0.3 0.2-0.6 0.4-0.3 0.2-0.6 0.4-0.3 0.2-0.6 0.5 0 0 0 0.1 0 0.1 0 0.1 0 0.1 0 0.1 0.1 0.1 0.1 0.1-0.2 0.1-0.4 0.2-0.3 0.2-0.5 0.2-0.2 0.1-0.5 0.2-0.2 0.1-0.5 0.2 0 0-0.1 0 0 0.1-0.1 0.1 0 0-0.1-0.1 0 0-0.1 0-0.1 0.1-0.2 0.2-0.2 0.2-0.3 0.2-0.2 0.1-0.4 0-0.1 0-0.3-0.1-0.1-0.2-0.1-0.3 0 0 0-0.1 0 0 0 0 0-0.1 0-0.1 0 0 0-0.1l-0.3 0.3q0.1 0.2 0 0.3 0 0.2-0.1 0.4-0.1 0.1-0.2 0.2-0.2 0.1-0.3 0.1-0.2 0-0.3 0-0.2-0.1-0.3-0.2-0.1 0-0.2-0.2-0.1-0.1-0.1-0.2 0-0.1 0-0.1 0 0 0-0.1 0 0 0-0.1 0 0 0 0l-0.5 0.7q0 0.1-0.1 0.1 0 0-0.1 0 0 0-0.1 0 0-0.1 0-0.1 0 0 0 0 0-0.1 0-0.1 0 0 0 0 0 0 0 0-0.1 0.2-0.2 0.3-0.1 0.2-0.2 0.4-0.1 0.1-0.1 0.3-0.1 0.2-0.2 0.4c-3.3 4.9-0.6-1.2-0.7-1.3zm2.6-0.6q0 0.2 0.1 0.3 0.1 0.1 0.3 0.1 0.1 0 0.3-0.1 0.1-0.1 0.1-0.2 0 0-0.1 0-0.1 0-0.2 0 0 0-0.1-0.1-0.1 0-0.1 0 0 0-0.1 0 0 0-0.1 0 0 0 0 0-0.1 0-0.1 0z"/>
			<path id="Layer" class="s21" d="m130.4 131.8q0.2-0.2 0.5-0.4 0.2-0.2 0.4-0.5 0.3-0.2 0.5-0.5 0.2-0.3 0.3-0.6 0.2-0.2 0.4-0.4 0.2-0.1 0.5-0.2 0.2-0.1 0.5-0.1 0.3 0.1 0.5 0.2 0-0.1 0-0.3 0.1-0.1 0.1-0.2 0-0.2 0-0.3 0-0.1 0-0.3c0-1.8 2.9-1.8 2.9 0q0 0.6-0.1 1.1 0 0.5-0.2 1.1-0.1 0.5-0.3 1-0.3 0.5-0.6 0.9-0.3 0.4-0.6 0.8-0.4 0.4-0.8 0.7-0.4 0.4-0.8 0.7-0.4 0.3-0.9 0.6-0.3 0.2-0.7 0.2-0.3 0-0.7-0.2-0.3-0.1-0.5-0.5-0.2-0.3-0.3-0.6l-0.1-0.1q-0.2-0.2-0.3-0.5-0.1-0.2-0.1-0.5 0-0.3 0.1-0.6 0.1-0.3 0.3-0.5z"/>
			<path id="Layer" fill-rule="evenodd" class="s22" d="m134.8 132.6q0.7-0.4 1.2-1 0.5-0.7 0.8-1.4 0.3-0.8 0.4-1.6 0-0.8-0.2-1.6 0 0 0 0 0 0 0-0.1 0 0 0 0c0 0 0 0-1.4-1.1q-0.1 0.2-0.2 0.3c-0.1 0.3-0.5 0.1-0.3-0.1q0.1-0.2 0.2-0.4c-6.3-4.9-36.1-28.3-178.3-139.6 0 0 0 0 178.3 139.6q0.8-1.4 1.8-2.6c0.3-0.5 0.6-0.9 1.3-0.7q0.1 0.1 0.3 0.2 0.1 0.2 0.2 0.3 0.1 0.2 0.1 0.4 0.1 0.2 0 0.4c0.2 0.4 0.7 0.7 0.8 1.2q0 0.2 0 0.4-0.1 0.2-0.1 0.4-0.1 0.1-0.2 0.3 0 0.2-0.1 0.3l-0.2 0.3q0 0 0 0 0 0 0 0 0 0.1 0.1 0.1 0 0 0 0c0.1 0.5 0.5 1.1 0.1 1.7q0 0.1-0.1 0.1-0.1 0.1-0.2 0.2 0 0-0.1 0.1-0.1 0.1-0.2 0.1l-1.1 0.8q-0.1 0-0.1 0 0 0-0.1 0 0 0 0 0-0.1 0-0.1-0.1-0.1 0.5-0.3 1-0.3 0.5-0.6 1-0.3 0.4-0.7 0.8-0.4 0.3-0.8 0.6c-0.2 0.2-0.4-0.2-0.2-0.3zm0.8-6.8q0.7 0.5 1.4 1.1l1-1.7c0.1-0.3 0.3-0.5 0.4-0.8 0.2-0.5 0.5-2.2-0.8-1.5q-0.2 0.2-0.4 0.4-0.1 0.2-0.3 0.4-0.1 0.2-0.2 0.4-0.2 0.2-0.3 0.4-0.4 0.7-0.8 1.3zm-0.3-0.2q0 0 0 0 0.2 0.1 0.3 0.2 0 0 0 0-0.1-0.1-0.3-0.2zm2.3 1.5c0.7 0.5 1.4-0.9 1.7-1.5q0.1-0.1 0.1-0.3 0.1-0.1 0.1-0.3-0.1-0.2-0.1-0.3-0.1-0.2-0.2-0.3-0.1-0.2-0.2-0.3-0.2 0.3-0.4 0.7-0.1 0.4-0.3 0.8-0.2 0.3-0.4 0.7-0.3 0.3-0.5 0.7v0.1q0 0 0.1 0 0 0 0 0 0 0 0.1 0 0 0 0 0zm-0.1 2.2q0 0 0 0 0 0 0 0zm0 0q0.7-0.5 1.4-1 0.1 0 0.2-0.1 0-0.1 0.1-0.2 0.1-0.1 0.1-0.2 0-0.1 0-0.2-0.1-0.1-0.1-0.2 0-0.1 0-0.2-0.1-0.1-0.1-0.2-0.1-0.1-0.1-0.2c-0.4 0.5-0.9 0.9-1.5 0.6q0 0.3 0.1 0.5 0 0.2 0 0.5 0 0.2 0 0.4-0.1 0.2-0.1 0.5z"/>
			<path id="Layer" class="s23" d="m114.5 138.7c0 0 8.4 0.4 10.5-1.6 2.2-2 5.3-8.3 5.3-8.3 0 0 5.8 3.7 6 5.8 0.3 2.2-6 12.5-8.8 13.2"/>
			<path id="Layer" class="s23" d="m101.8 241.8c0 0 7.1-3.2 8.8-3.3 1.7-0.1 4.5 0.5 2 3.6 0 0-7.4 4.9-8.4 5-0.9 0.1-3.3-0.6-3.4-0.3 0 0.2-0.3 2.1-0.3 2.1 0 0-6.2 2.4-6.5-1.8 0-0.5 0.9-8.3 0.9-8.3"/>
			<path id="Layer" class="s22" d="m93.7 223.6c1.2-8 3.5-15.7 4.4-23.8 0.6-5.1 1-10.2 1.6-15.3 0.7-5.1 2.6-10 3.8-15q0-0.1 0-0.2 0-0.1 0-0.2-0.1 0-0.1-0.1-0.1-0.1-0.2-0.1 0.1-0.3 0.2-0.6 1-0.9 1.9-1.7l8.7 5.9c0 0-0.1 5.3-0.3 13-1 4.5-1.8 8.5-3 12.7q0.1 0.1 0.2 0.3 0.1 0.1 0.1 0.2 0 0.1 0 0.3 0 0.1 0 0.2-1 5.1-2 10.1-0.9 5.1-1.6 10.2-0.8 5.1-1.4 10.2-0.7 5.1-1.1 10.2-0.1 0.1-0.1 0.3-0.1 0.2-0.2 0.3-0.1 0.1-0.2 0.2-0.2 0.1-0.3 0.2l-0.3 2.1c-7.5 2.9-9.2-2.2-9.2-2.2 0 0-0.3-4.3-0.8-10.3q-0.2-3.5-0.1-6.9z"/>
			<path id="Layer" class="s21" d="m157.7 142.1c-0.5 0.3-1 0.6-1.5 0.9q0.3-0.3 0.5-0.7 0.3-0.3 0.5-0.7 0.3-0.4 0.5-0.8 0.3-0.4 0.5-0.8c0.5-0.9-0.9-1.7-1.5-1q-0.8 0.8-1.5 1.6-0.8 0.7-1.5 1.5-0.8 0.7-1.6 1.4-0.8 0.7-1.6 1.4-0.1 0-0.1 0-0.1 0.1-0.1 0.1 0 0 0 0.1-0.1 0-0.1 0.1h-1.4q-0.6 0-1.1 0h-0.3q-0.1-0.1-0.2-0.1-0.1 0-0.2 0.1-0.1 0-0.2 0.1-0.1 0-0.2 0.1-0.1 0-0.1 0-0.1 0.1-0.2 0.1 0 0-0.1 0.1 0 0-0.1 0 0 0 0 0.1-0.1 0-0.1 0 0 0 0 0 0 0 0 0.1-0.7 0-1.4 0.1-0.2 0-0.4 0.2-0.2 0.1-0.3 0.3-0.1 0.2-0.1 0.4 0 0.3 0.1 0.5l-0.2-0.1c-1-0.7-1.8 1-0.8 1.6q0.8 0.5 1.6 0.9 0.9 0.4 1.8 0.6 0.8 0.3 1.8 0.4 0.9 0.1 1.8 0.1 0.1 0.1 0.2 0.1 0.1 0.1 0.2 0.1 0.1 0 0.2 0 0.1 0 0.2-0.1l0.4-0.1q0.8-0.1 1.6-0.2 0.8-0.1 1.5-0.2 0.8-0.2 1.6-0.4 0.7-0.2 1.5-0.5 0.2-0.1 0.4-0.2 0.2 0 0.4-0.1 0.2 0 0.4 0 0.2-0.1 0.4-0.1c-0.3-2.4-0.8-4.7-1.2-7z"/>
			<path id="Layer" class="s23" d="m117.3 253.4l4.2 1.5q0.1 0.3 0.2 0.6 0.2 0.2 0.4 0.4 0.2 0.2 0.5 0.4 0.3 0.1 0.6 0.2 0 0 0.1 0.1 0.1 0 0.1 0.1 0.1 0 0.2 0.1 0.1 0 0.2 0 0.6 0 1.2 0 0.7 0 1.3-0.1 0.6-0.1 1.3-0.3 0.6-0.2 1.2-0.4c2-0.6 9.8-3.6 7.6 2-1.4 1-3 1.9-4.5 2.7q-1.2 0.8-2.5 1.5-0.1 0.1-0.3 0.2-0.2 0.1-0.4 0.2-0.2 0.1-0.3 0.2-0.2 0-0.4 0.1c-1.2 0.2-3.9-0.7-4-0.4 0 0.3-0.3 2.5-0.3 2.5 0 0-7.1 2.7-7.4-2.1-0.1-0.6 1-9.5 1-9.5z"/>
			<path id="Layer" class="s22" d="m111.4 210.4c-0.9-14.1-1.4-28.3-4.4-42.2-0.1-3.6-2.4-1.3-2.3-2.7 1.3-11.6 18.2 2.2 18.2 2.2 0.7 0.6 0.8 4.1 0.9 5q1.2 6.6 2 13.4c2.8 22.7 1.8 45.2 0.6 68-3.6 3.7-5.9 4.8-11.7 2.4-1.2-14.9-2.3-29.8-3.2-44.7z"/>
			<path id="Layer" class="s23" d="m120.4 140.3c-0.2-0.8-2.1-1.3-2.6-1.6-1.3-0.7-0.6-2-1.8-2.7q-0.7-0.4-1.5-0.8-0.7-0.4-1.4-0.7-0.7-0.4-1.5-0.7-0.7-0.3-1.5-0.6c-3.2 0-8.6-0.2-8.9 4.1-0.5 6.6 0.1 13.2 0.6 19.7q0.3 4 0.6 7.9c0.1 0.9 0.2 8.5 0.8 8.8 6.4 2.6 14.5 1.7 20.8-0.8q-0.2-4.1-0.4-8.2-0.3-4.1-0.8-8.2-0.4-4.1-1-8.1-0.6-4.1-1.4-8.2z"/>
			<path id="Layer" class="s22" d="m114.7 146.9q0.1 1.7 0.8 3.2 0.6 1.5 1.7 2.8 1 1.3 2.4 2.2 1.4 0.8 3 1.3c0 0.4 0.1 3.1 0.2 3.5-5.1-1.2-8.9-7.6-9.4-13-0.1-0.8 1.2-0.8 1.3 0z"/>
			<path id="Layer" class="s21" d="m111.6 119.8c0.4 0.1 4 8.3 2.6 13.3-1.4 5-9.9-0.2-12-3.9-2.2-3.8 1.4-11.5 9.4-9.4z"/>
			<path id="Layer" class="s22" d="m111.5 121q0 0.6-0.2 1.1-0.2 0.6-0.5 1-0.3 0.5-0.7 0.9-0.5 0.4-1 0.6c-2.4 0.9-4.3 1.4-4.2 2.5 0.1 1.1 4.3-0.1 4.3 2.4q0 0.6 0 1.3-0.1 0.6-0.2 1.2-0.1 0.6-0.2 1.3-0.1 0.6-0.3 1.2c-0.2 1.2-7.3-2.5-9.7-9-2.3-6.4 3.5-8.1 3.8-8.1 0.3-0.1 0.8-1.8 3.7-2.4 2.9-0.6 3.7 0.5 3.7 0.5q0.5-0.3 1-0.5 0.6-0.1 1.2 0 0.5 0 1 0.3 0.6 0.2 1 0.6c2.6 2.1 2 6-1 7.5z"/>
			<path id="Layer" class="s23" d="m114.7 135.3c0 0 14.6 8.3 19.9 8.4 3.8 0 11.3-1.3 15.1-2 3.7 3.1 3.9 8.5 1.7 12.6-6.4 1-25.3 3.7-31.2 0.8-7.2-3.6-15.1-8.3-15.1-8.3 0 0-7.1-7 9.6-11.5z"/>
			<path id="Layer" class="s21" d="m156.2 143c0 0 2.2-1.8 2.7-1.4 0.6 0.3 1.9 3.4 1.7 5.2-0.1 1.8-1.1 3.3-5.6 3.3"/>
			<path id="Layer" class="s24" d="m40 207c-6 4-12.2 7.6-18.3 11.4 5.8 3.3 11.3 6.5 11.7 6.8l19.1-10.6z"/>
			<path id="Layer" class="s7" d="m35.7 194.3c0-0.1-2.3 17.7 7.8 21.1 10 3.4 15.4-5.5 15.6-21.2"/>
			<path id="Layer" class="s25" d="m47.4 200.6c-6.5 0-11.7-2.9-11.7-6.3 0-3.5 5.2-6.4 11.7-6.4 6.4 0 11.7 2.9 11.7 6.4 0 3.4-5.3 6.3-11.7 6.3z"/>
			<path id="Layer" class="s26" d="m47.4 194.3c0-0.1 0-24.6-12.6-34.6 0 0-6.7 4-5 10.1 1.7 6.1 8.9 1.6 10.1 4.8 1.3 3.2-2.4 4.2 0.1 7.4 2.5 3.3 7.4 5.9 7.4 12.2z"/>
			<path id="Layer" class="s26" d="m49.9 192.2c0 0-1-28.5 5.3-36.9 6.3-8.5 10.5 3.1 7.6 8.3-2.8 5.2-7.8 3.9-6 8.3 1.8 4.5 4.9 6.8 1.4 8.7-3.5 1.9-8.6 8-8.3 11.6z"/>
		</g>
	</g>
</svg>